<?xml version="1.0" encoding="UTF-8"?>
<svg width="752pt" height="752pt" version="1.1" viewBox="0 0 752 752" xmlns="http://www.w3.org/2000/svg">
 <g>
  <rect width="752" height="752" fill="#fff"/>
  <path d="m560.99 294.61h-29.598c-5.8867 0-11.535 2.3398-15.695 6.5-4.1641 4.1641-6.5039 9.8125-6.5039 15.699v2.8281l-22.199 11.098-26.293-13.148h0.003906c-1.0273-0.51172-2.1602-0.78125-3.3086-0.77734h-88.797c-1.1484-0.003907-2.2812 0.26562-3.3086 0.77734l-42.836 21.422h-65.523l-80.723 7.3984c-6.5391-0.003906-12.746 2.875-16.965 7.8633-4.2227 4.9922-6.0273 11.59-4.9414 18.035 0.98828 5.1172 3.7031 9.7383 7.6914 13.094 3.9844 3.3555 9.0039 5.2422 14.215 5.3398v22.266c0 1.9609 0.77734 3.8438 2.1641 5.2305 1.3906 1.3906 3.2734 2.168 5.2344 2.168h82.758c1.5234 4.3164 4.3438 8.0508 8.0742 10.699 3.7305 2.6523 8.1875 4.082 12.762 4.1016h22.199v73.996h-7.3984c-4.0859 0-7.3984 3.3125-7.3984 7.4023v22.199l-7.4023-0.003906c-9.8086 0.011719-19.211 3.9141-26.148 10.852-6.9336 6.9375-10.836 16.34-10.848 26.148v22.199h251.59v-22.199c-0.011719-9.8086-3.9141-19.211-10.852-26.148-6.9336-6.9375-16.34-10.84-26.148-10.852h-7.3984v-22.195c0-1.9648-0.78125-3.8477-2.168-5.2344s-3.2695-2.168-5.2305-2.168h-7.4023v-73.996h22.199c4.5742-0.019531 9.0352-1.4492 12.762-4.1016 3.7305-2.6484 6.5508-6.3828 8.0781-10.699h82.758c1.9609 0 3.8438-0.77734 5.2305-2.168 1.3906-1.3867 2.168-3.2695 2.168-5.2305v-29.598c0-1.9648-0.77734-3.8477-2.168-5.2344-1.3867-1.3867-3.2695-2.168-5.2305-2.168h-7.4023c10.156 0.11719 19.875-4.1016 26.723-11.602 7.9688-9.2305 11.699-21.387 10.277-33.5-2.1289-22.043-16.641-36.293-37-36.293zm-295.98 111h-74v-14.801h74zm44.398 118.39h133.19v14.801l-133.2-0.003906zm14.801-14.801-0.003906-73.996h103.6v73.996zm140.59 44.398h-0.003906c5.8867 0 11.535 2.3398 15.699 6.5039 4.1602 4.1602 6.5 9.8086 6.5 15.695v7.3984h-221.99v-7.3984c0-5.8867 2.3359-11.535 6.5-15.695 4.1641-4.1641 9.8086-6.5039 15.695-6.5039zm7.3984-140.59c0 1.9609-0.78125 3.8438-2.168 5.2305-1.3906 1.3906-3.2695 2.168-5.2344 2.168h-177.59c-4.0859 0-7.3984-3.3125-7.3984-7.3984v-22.199h192.39zm88.797-7.3984h-74v-14.801h73.996zm-56.133-29.598 14.801-14.801h0.050782-0.003906c5.5977 9.2578 15.664 14.883 26.484 14.797zm71.902-21.555-0.003906-0.003907c-4.0312 4.4258-9.7812 6.8906-15.77 6.7578h-14.797c-3.3633-0.039063-6.6367-1.0781-9.4023-2.9844-2.7695-1.9062-4.9062-4.5977-6.1367-7.7227-1.2617-2.5234-3.8438-4.1094-6.6602-4.0938h-7.3984c-1.9648 0-3.8477 0.78125-5.2344 2.168l-27.43 27.43h-107.93c-4.0859 0-7.3984-3.3125-7.3984-7.3984 0-4.0859 3.3125-7.3984 7.3984-7.3984h81.398v-14.801h-81.398c-5.8867 0-11.531 2.3398-15.695 6.5039-4.1641 4.1602-6.5039 9.8086-6.5039 15.695 0.027344 2.5273 0.48828 5.0312 1.3633 7.3984h-178.17c-3.7969 0.14062-7.1719-2.4102-8.0703-6.1016-0.38672-2.1719 0.21484-4.4023 1.6406-6.0859 1.6055-1.7773 3.9297-2.7344 6.3203-2.6094l80.723-7.4023h66.598c1.1484 0.003907 2.2812-0.26172 3.3086-0.77734l42.836-21.422h85.305l28.035 14.062c2.0859 1.0391 4.5352 1.0391 6.6172 0l29.598-14.801c2.5234-1.2578 4.1094-3.8398 4.0938-6.6602v-7.3984c0-4.0859 3.3125-7.4023 7.3984-7.4023h29.598c6.0039 0.0625 11.73 2.5195 15.906 6.8281 4.1797 4.3125 6.457 10.113 6.332 16.113 1.0195 7.9453-1.3242 15.957-6.4688 22.102z" fill="#3ebac0"/>
  <path d="m339 450h14.801v14.801h-14.801z" fill="#3ebac0"/>
  <path d="m339 479.6h14.801v14.801h-14.801z" fill="#3ebac0"/>
  <path d="m406.34 232.1-14.801 29.598v0.003907c-0.89453 1.7969-1.0234 3.8828-0.35156 5.7773 0.67188 1.8906 2.082 3.4336 3.9141 4.2617l81.398 37h-0.003906c0.97266 0.44531 2.0312 0.67578 3.1016 0.66406 2.8164 0.015625 5.3984-1.5703 6.6602-4.0898l14.801-29.598h-0.003906c0.87891-1.7578 1.0234-3.793 0.40234-5.6523-0.62109-1.8633-1.957-3.4023-3.7148-4.2812l-26.445-13.223-14.059-63.156h-0.003906c-0.60938-2.7383-2.7148-4.8945-5.4375-5.5703l-53.598-13.402v-9.0195c0-1.9609-0.77734-3.8438-2.168-5.2344-1.3867-1.3867-3.2695-2.1641-5.2305-2.1641h-29.598c-4.0859 0-7.4023 3.3125-7.4023 7.3984v9.0195l-53.586 13.402c-2.7227 0.67578-4.8281 2.832-5.4414 5.5703l-14.059 63.156-26.445 13.223c-1.7578 0.87891-3.0938 2.418-3.7148 4.2812-0.62109 1.8594-0.48047 3.8945 0.39844 5.6523l14.801 29.598c1.7812 3.5625 6.0625 5.0781 9.6875 3.4258l81.398-37h-0.003906c1.8281-0.82812 3.2422-2.3711 3.9141-4.2617 0.67188-1.8945 0.54297-3.9805-0.35547-5.7773l-14.801-29.598 0.003906-0.003906c-0.87891-1.7539-2.418-3.0938-4.2812-3.7148-1.8594-0.62109-3.8945-0.47656-5.6523 0.40234l-12.195 6.1055 6.2227-15.539 46.309-13.246 46.277 13.223 6.2227 15.539-12.195-6.1055h0.003906c-1.7656-0.88672-3.8086-1.0352-5.6797-0.41016-1.8711 0.62891-3.418 1.9766-4.2891 3.7461zm43.098 15.363-14.801-37c-0.85156-2.1289-2.6406-3.7422-4.8477-4.3711l-51.797-14.801c-1.3242-0.375-2.7305-0.375-4.0547 0l-51.797 14.801c-2.207 0.62891-3.9961 2.2422-4.8477 4.3711l-14.801 37c-1.1836 2.8672-0.45313 6.168 1.832 8.2656 2.2812 2.1016 5.6289 2.5547 8.3867 1.1406l22.984-11.492 8.0586 16.117-67.914 30.855-8.3008-16.598 22.973-11.484c1.9961-0.99609 3.4375-2.8398 3.9219-5.0156l13.801-62.156 54.758-13.688v-0.003906c3.3008-0.82422 5.6172-3.793 5.6094-7.1914v-7.4023h14.801v7.4023c0 3.3945 2.3125 6.3555 5.6094 7.1758l54.758 13.688 13.801 62.156-0.003906 0.003906c0.48438 2.1797 1.9258 4.0195 3.9219 5.0156l22.977 11.484-8.3008 16.578-67.914-30.855 8.0586-16.117 22.984 11.527c2.7461 1.375 6.0586 0.91016 8.3203-1.1719 2.2617-2.082 3.0039-5.3438 1.8594-8.1953z" fill="#3ebac0"/>
 </g>
</svg>
