<?xml version="1.0" encoding="UTF-8"?>
<svg width="700pt" height="700pt" version="1.1" viewBox="0 0 700 700" xmlns="http://www.w3.org/2000/svg" xmlns:xlink="http://www.w3.org/1999/xlink">
 <defs>
  <symbol id="w" overflow="visible">
   <path d="m25.359-1.5156c-1.3125 0.67969-2.6797 1.1875-4.0938 1.5312-1.418 0.34375-2.8984 0.51562-4.4375 0.51562-4.5938 0-8.2344-1.2812-10.922-3.8438-2.6797-2.5703-4.0156-6.0547-4.0156-10.453 0-4.4062 1.3359-7.8945 4.0156-10.469 2.6875-2.5703 6.3281-3.8594 10.922-3.8594 1.5391 0 3.0195 0.17969 4.4375 0.53125 1.4141 0.34375 2.7812 0.85547 4.0938 1.5312v5.7031c-1.3242-0.89453-2.625-1.5508-3.9062-1.9688-1.2812-0.42578-2.6328-0.64062-4.0469-0.64062-2.543 0-4.543 0.82031-6 2.4531-1.4492 1.625-2.1719 3.8672-2.1719 6.7188 0 2.8438 0.72266 5.0781 2.1719 6.7031 1.457 1.625 3.457 2.4375 6 2.4375 1.4141 0 2.7656-0.20703 4.0469-0.625 1.2812-0.41406 2.582-1.0703 3.9062-1.9688z"/>
  </symbol>
  <symbol id="d" overflow="visible">
   <path d="m18.547-15.062c-0.57422-0.26953-1.1484-0.46875-1.7188-0.59375-0.57422-0.13281-1.1523-0.20312-1.7344-0.20312-1.6992 0-3.0078 0.54688-3.9219 1.6406-0.91797 1.0938-1.375 2.6562-1.375 4.6875v9.5312h-6.625v-20.703h6.625v3.4062c0.84375-1.3516 1.8164-2.3359 2.9219-2.9531 1.1016-0.625 2.4258-0.9375 3.9688-0.9375 0.21875 0 0.45703 0.011719 0.71875 0.03125 0.25781 0.011719 0.63281 0.046875 1.125 0.10938z"/>
  </symbol>
  <symbol id="a" overflow="visible">
   <path d="m23.844-10.406v1.8906h-15.469c0.15625 1.5547 0.71094 2.7188 1.6719 3.5 0.96875 0.77344 2.3125 1.1562 4.0312 1.1562 1.3945 0 2.8203-0.20312 4.2812-0.60938 1.457-0.41406 2.957-1.0469 4.5-1.8906v5.1094c-1.5625 0.58594-3.1328 1.0273-4.7031 1.3281-1.5625 0.30078-3.125 0.45312-4.6875 0.45312-3.7422 0-6.6523-0.94531-8.7344-2.8438-2.0742-1.9062-3.1094-4.5781-3.1094-8.0156 0-3.375 1.0195-6.0234 3.0625-7.9531 2.0391-1.9375 4.8438-2.9062 8.4062-2.9062 3.2578 0 5.8633 0.98047 7.8125 2.9375 1.957 1.9609 2.9375 4.5742 2.9375 7.8438zm-6.8125-2.2031c0-1.25-0.36719-2.2578-1.0938-3.0312-0.73047-0.76953-1.6875-1.1562-2.875-1.1562-1.2812 0-2.3242 0.35938-3.125 1.0781-0.80469 0.71875-1.3047 1.7578-1.5 3.1094z"/>
  </symbol>
  <symbol id="c" overflow="visible">
   <path d="m12.453-9.3125c-1.375 0-2.4141 0.23438-3.1094 0.70312-0.69922 0.46875-1.0469 1.1562-1.0469 2.0625 0 0.84375 0.28125 1.5078 0.84375 1.9844 0.5625 0.46875 1.3359 0.70312 2.3281 0.70312 1.25 0 2.2969-0.44531 3.1406-1.3438 0.85156-0.89453 1.2812-2.0156 1.2812-3.3594v-0.75zm10.109-2.5v11.812h-6.6719v-3.0625c-0.88672 1.25-1.8867 2.1641-3 2.7344-1.1055 0.57031-2.4531 0.85938-4.0469 0.85938-2.1367 0-3.875-0.625-5.2188-1.875-1.3359-1.25-2-2.8672-2-4.8594 0-2.4258 0.83203-4.207 2.5-5.3438 1.6758-1.1328 4.3008-1.7031 7.875-1.7031h3.8906v-0.51562c0-1.0508-0.41406-1.8164-1.2344-2.2969-0.82422-0.48828-2.1094-0.73438-3.8594-0.73438-1.418 0-2.7422 0.14062-3.9688 0.42188-1.2188 0.28125-2.3516 0.71094-3.3906 1.2812v-5.0469c1.4141-0.34375 2.8359-0.60156 4.2656-0.78125 1.4258-0.17578 2.8594-0.26562 4.2969-0.26562 3.7266 0 6.4219 0.73438 8.0781 2.2031s2.4844 3.8594 2.4844 7.1719z"/>
  </symbol>
  <symbol id="b" overflow="visible">
   <path d="m10.406-26.578v5.875h6.8125v4.7344h-6.8125v8.7812c0 0.96094 0.1875 1.6094 0.5625 1.9531 0.38281 0.33594 1.1445 0.5 2.2812 0.5h3.4062v4.7344h-5.6875c-2.6055 0-4.4531-0.53906-5.5469-1.625-1.0938-1.0938-1.6406-2.9453-1.6406-5.5625v-8.7812h-3.2812v-4.7344h3.2812v-5.875z"/>
  </symbol>
  <symbol id="k" overflow="visible">
   <path d="m17.266-17.672v-11.078h6.6406v28.75h-6.6406v-3c-0.91797 1.2188-1.9219 2.1172-3.0156 2.6875-1.0938 0.5625-2.3672 0.84375-3.8125 0.84375-2.5547 0-4.6484-1.0078-6.2812-3.0312-1.6367-2.0312-2.4531-4.6406-2.4531-7.8281s0.81641-5.7891 2.4531-7.8125c1.6328-2.0312 3.7266-3.0469 6.2812-3.0469 1.4258 0 2.6914 0.28906 3.7969 0.85938 1.1016 0.57422 2.1133 1.4609 3.0312 2.6562zm-4.375 13.406c1.4141 0 2.5-0.51562 3.25-1.5469 0.75-1.0391 1.125-2.5469 1.125-4.5156s-0.375-3.4688-1.125-4.5c-0.75-1.0391-1.8359-1.5625-3.25-1.5625-1.3984 0-2.4688 0.52344-3.2188 1.5625-0.74219 1.0312-1.1094 2.5312-1.1094 4.5s0.36719 3.4766 1.1094 4.5156c0.75 1.0312 1.8203 1.5469 3.2188 1.5469z"/>
  </symbol>
  <symbol id="j" overflow="visible">
   <path d="m14.188-4.2656c1.4141 0 2.4922-0.51562 3.2344-1.5469 0.75-1.0391 1.125-2.5469 1.125-4.5156s-0.375-3.4688-1.125-4.5c-0.74219-1.0391-1.8203-1.5625-3.2344-1.5625-1.418 0-2.5078 0.52344-3.2656 1.5625-0.75 1.043-1.125 2.543-1.125 4.5 0 1.9609 0.375 3.4609 1.125 4.5 0.75781 1.043 1.8477 1.5625 3.2656 1.5625zm-4.3906-13.406c0.90625-1.1953 1.9102-2.082 3.0156-2.6562 1.1133-0.57031 2.3945-0.85938 3.8438-0.85938 2.5391 0 4.6289 1.0156 6.2656 3.0469 1.6445 2.0234 2.4688 4.625 2.4688 7.8125s-0.82422 5.7969-2.4688 7.8281c-1.6367 2.0234-3.7266 3.0312-6.2656 3.0312-1.4492 0-2.7305-0.28906-3.8438-0.85938-1.1055-0.57031-2.1094-1.4609-3.0156-2.6719v3h-6.625v-28.75h6.625z"/>
  </symbol>
  <symbol id="i" overflow="visible">
   <path d="m0.46875-20.703h6.6094l5.5625 14.047 4.7344-14.047h6.6094l-8.7031 22.656c-0.875 2.3125-1.8984 3.9258-3.0625 4.8438-1.1562 0.91406-2.6953 1.375-4.6094 1.375h-3.8281v-4.3438h2.0781c1.125 0 1.9414-0.18359 2.4531-0.54688 0.50781-0.35547 0.90625-0.99219 1.1875-1.9062l0.1875-0.57812z"/>
  </symbol>
  <symbol id="h" overflow="visible">
   <path d="m20.219-5.0312h-11.125l-1.7656 5.0312h-7.1406l10.219-27.594h8.4844l10.219 27.594h-7.1562zm-9.3594-5.1094h7.5625l-3.7656-10.984z"/>
  </symbol>
  <symbol id="v" overflow="visible">
   <path d="m2.1562-20.703h18.062v4.625l-10.906 11.344h10.906v4.7344h-18.516v-4.625l10.906-11.344h-10.453z"/>
  </symbol>
  <symbol id="g" overflow="visible">
   <path d="m22.359-17.266c0.83203-1.2812 1.8281-2.2539 2.9844-2.9219 1.1562-0.66406 2.4219-1 3.7969-1 2.375 0 4.1797 0.73438 5.4219 2.2031 1.25 1.4609 1.875 3.5859 1.875 6.375v12.609h-6.6562v-10.797c0.019531-0.15625 0.03125-0.31641 0.03125-0.48438 0.007812-0.17578 0.015625-0.42578 0.015625-0.75 0-1.4688-0.21875-2.5312-0.65625-3.1875-0.42969-0.65625-1.1211-0.98438-2.0781-0.98438-1.2617 0-2.2344 0.52344-2.9219 1.5625-0.67969 1.0312-1.0312 2.5273-1.0625 4.4844v10.156h-6.6406v-10.797c0-2.2891-0.19922-3.7656-0.59375-4.4219-0.39844-0.65625-1.1016-0.98438-2.1094-0.98438-1.2734 0-2.25 0.52344-2.9375 1.5625-0.6875 1.043-1.0312 2.5273-1.0312 4.4531v10.188h-6.6562v-20.703h6.6562v3.0312c0.8125-1.1641 1.7422-2.0391 2.7969-2.625 1.0508-0.59375 2.2109-0.89062 3.4844-0.89062 1.4258 0 2.6875 0.34375 3.7812 1.0312 1.1016 0.6875 1.9375 1.6523 2.5 2.8906z"/>
  </symbol>
  <symbol id="u" overflow="visible">
   <path d="m3.4688-27.594h7.125v27.594h-7.125z"/>
  </symbol>
  <symbol id="t" overflow="visible">
   <path d="m19.344-20.047v5.0312c-1.418-0.59375-2.7891-1.0352-4.1094-1.3281-1.3125-0.30078-2.5547-0.45312-3.7188-0.45312-1.2617 0-2.1992 0.15625-2.8125 0.46875-0.60547 0.3125-0.90625 0.79688-0.90625 1.4531 0 0.53125 0.22656 0.9375 0.6875 1.2188 0.46875 0.28125 1.2969 0.49219 2.4844 0.625l1.1719 0.17188c3.3828 0.42969 5.6602 1.1367 6.8281 2.125 1.1758 0.99219 1.7656 2.5391 1.7656 4.6406 0 2.1992-0.8125 3.8555-2.4375 4.9688-1.625 1.1055-4.0547 1.6562-7.2812 1.6562-1.3672 0-2.7812-0.10938-4.25-0.32812-1.4609-0.20703-2.9609-0.52344-4.5-0.95312v-5.0312c1.3203 0.63672 2.6758 1.1172 4.0625 1.4375 1.3828 0.32422 2.7891 0.48438 4.2188 0.48438 1.2891 0 2.2656-0.17578 2.9219-0.53125 0.65625-0.36328 0.98438-0.89453 0.98438-1.5938 0-0.59375-0.23047-1.0352-0.6875-1.3281-0.44922-0.28906-1.3398-0.51562-2.6719-0.67188l-1.1719-0.14062c-2.9492-0.375-5.0156-1.0547-6.2031-2.0469-1.1797-1-1.7656-2.5195-1.7656-4.5625 0-2.1875 0.75-3.8047 2.25-4.8594 1.5078-1.0625 3.8164-1.5938 6.9219-1.5938 1.2188 0 2.5 0.09375 3.8438 0.28125 1.3438 0.17969 2.8008 0.46484 4.375 0.85938z"/>
  </symbol>
  <symbol id="f" overflow="visible">
   <path d="m23.984-12.609v12.609h-6.6562v-9.6094c0-1.8125-0.042969-3.0547-0.125-3.7344-0.074219-0.67578-0.21094-1.1758-0.40625-1.5-0.26172-0.42578-0.61719-0.75781-1.0625-1-0.4375-0.23828-0.9375-0.35938-1.5-0.35938-1.3867 0-2.4766 0.53125-3.2656 1.5938-0.78125 1.0625-1.1719 2.5391-1.1719 4.4219v10.188h-6.625v-28.75h6.625v11.078c1-1.1953 2.0547-2.082 3.1719-2.6562 1.125-0.57031 2.3633-0.85938 3.7188-0.85938 2.3828 0 4.1953 0.73438 5.4375 2.2031 1.2383 1.4609 1.8594 3.5859 1.8594 6.375z"/>
  </symbol>
  <symbol id="s" overflow="visible">
   <path d="m12.891-16.391c-1.3984 0-2.4688 0.52344-3.2188 1.5625-0.74219 1.0312-1.1094 2.5312-1.1094 4.5s0.36719 3.4766 1.1094 4.5156c0.75 1.0312 1.8203 1.5469 3.2188 1.5469 1.4141 0 2.5-0.51562 3.25-1.5469 0.75-1.0391 1.125-2.5469 1.125-4.5156s-0.375-3.4688-1.125-4.5c-0.75-1.0391-1.8359-1.5625-3.25-1.5625zm4.375 13.391c-0.91797 1.2188-1.9219 2.1172-3.0156 2.6875-1.0938 0.5625-2.3672 0.84375-3.8125 0.84375-2.5547 0-4.6484-1.0078-6.2812-3.0312-1.6367-2.0312-2.4531-4.6406-2.4531-7.8281s0.81641-5.7852 2.4531-7.7969c1.6328-2.0195 3.7266-3.0312 6.2812-3.0312 1.4453 0 2.7188 0.28906 3.8125 0.85938 1.0938 0.5625 2.0977 1.4531 3.0156 2.6719v-3.0781h6.6406v28.578h-6.6406z"/>
  </symbol>
  <symbol id="r" overflow="visible">
   <path d="m16.797-28.75v4.3438h-3.6562c-0.9375 0-1.5938 0.17188-1.9688 0.51562-0.36719 0.33594-0.54688 0.91797-0.54688 1.75v1.4375h5.6562v4.7344h-5.6562v15.969h-6.6094v-15.969h-3.2969v-4.7344h3.2969v-1.4375c0-2.25 0.625-3.9102 1.875-4.9844 1.2578-1.082 3.207-1.625 5.8438-1.625z"/>
  </symbol>
  <symbol id="e" overflow="visible">
   <path d="m13.031-16.469c-1.4688 0-2.5898 0.53125-3.3594 1.5938-0.77344 1.0547-1.1562 2.5703-1.1562 4.5469 0 1.9805 0.38281 3.5 1.1562 4.5625 0.76953 1.0547 1.8906 1.5781 3.3594 1.5781 1.4375 0 2.5352-0.52344 3.2969-1.5781 0.76953-1.0625 1.1562-2.582 1.1562-4.5625 0-1.9766-0.38672-3.4922-1.1562-4.5469-0.76172-1.0625-1.8594-1.5938-3.2969-1.5938zm0-4.7188c3.5625 0 6.3438 0.96484 8.3438 2.8906 2 1.918 3 4.5742 3 7.9688 0 3.3984-1 6.0586-3 7.9844-2 1.918-4.7812 2.875-8.3438 2.875-3.5742 0-6.3711-0.95703-8.3906-2.875-2.0117-1.9258-3.0156-4.5859-3.0156-7.9844 0-3.3945 1.0039-6.0508 3.0156-7.9688 2.0195-1.9258 4.8164-2.8906 8.3906-2.8906z"/>
  </symbol>
  <symbol id="q" overflow="visible">
   <path d="m3.4688-27.594h7.9531l10.031 18.922v-18.922h6.75v27.594h-7.9531l-10.031-18.922v18.922h-6.75z"/>
  </symbol>
  <symbol id="p" overflow="visible">
   <path d="m2.9531-8.0625v-12.641h6.6562v2.0781c0 1.125-0.007813 2.5391-0.015625 4.2344-0.011719 1.6875-0.015625 2.8125-0.015625 3.375 0 1.668 0.039063 2.8711 0.125 3.6094 0.082031 0.73047 0.22656 1.2578 0.4375 1.5781 0.26953 0.4375 0.625 0.77734 1.0625 1.0156 0.4375 0.23047 0.94141 0.34375 1.5156 0.34375 1.375 0 2.4531-0.53125 3.2344-1.5938 0.78906-1.0625 1.1875-2.5352 1.1875-4.4219v-10.219h6.625v20.703h-6.625v-3c-0.99219 1.2109-2.043 2.1016-3.1562 2.6719-1.1172 0.57031-2.3438 0.85938-3.6875 0.85938-2.3984 0-4.2188-0.72656-5.4688-2.1875-1.25-1.4688-1.875-3.6016-1.875-6.4062z"/>
  </symbol>
  <symbol id="o" overflow="visible">
   <path d="m23.984-12.609v12.609h-6.6562v-9.6406c0-1.7891-0.042969-3.0234-0.125-3.7031-0.074219-0.67578-0.21094-1.1758-0.40625-1.5-0.26172-0.42578-0.61719-0.75781-1.0625-1-0.4375-0.23828-0.9375-0.35938-1.5-0.35938-1.3867 0-2.4766 0.53125-3.2656 1.5938-0.78125 1.0625-1.1719 2.5391-1.1719 4.4219v10.188h-6.625v-20.703h6.625v3.0312c1-1.1953 2.0547-2.082 3.1719-2.6562 1.125-0.57031 2.3633-0.85938 3.7188-0.85938 2.3828 0 4.1953 0.73438 5.4375 2.2031 1.2383 1.4609 1.8594 3.5859 1.8594 6.375z"/>
  </symbol>
  <symbol id="n" overflow="visible">
   <path d="m3.4688-27.594h11.812c3.5078 0 6.2031 0.78125 8.0781 2.3438 1.8828 1.5625 2.8281 3.7812 2.8281 6.6562 0 2.8984-0.94531 5.125-2.8281 6.6875-1.875 1.5547-4.5703 2.3281-8.0781 2.3281h-4.6875v9.5781h-7.125zm7.125 5.1562v7.7031h3.9375c1.375 0 2.4375-0.33203 3.1875-1 0.75-0.66406 1.125-1.6172 1.125-2.8594 0-1.2266-0.375-2.1758-1.125-2.8438-0.75-0.66406-1.8125-1-3.1875-1z"/>
  </symbol>
  <symbol id="m" overflow="visible">
   <path d="m3.1719-20.703h6.625v20.328c0 2.7695-0.66797 4.8828-2 6.3438-1.3359 1.4688-3.2617 2.2031-5.7812 2.2031h-3.2656v-4.3438h1.1406c1.2578 0 2.1172-0.28906 2.5781-0.85938 0.46875-0.5625 0.70312-1.6797 0.70312-3.3438zm0-8.0469h6.625v5.3906h-6.625z"/>
  </symbol>
  <symbol id="l" overflow="visible">
   <path d="m19.906-20.047v5.3906c-0.90625-0.61328-1.8125-1.0664-2.7188-1.3594-0.89844-0.30078-1.8359-0.45312-2.8125-0.45312-1.8438 0-3.2812 0.54297-4.3125 1.625-1.0312 1.0742-1.5469 2.5781-1.5469 4.5156s0.51562 3.4492 1.5469 4.5312c1.0312 1.0742 2.4688 1.6094 4.3125 1.6094 1.0312 0 2.0078-0.15625 2.9375-0.46875 0.9375-0.3125 1.8008-0.76953 2.5938-1.375v5.4219c-1.043 0.38672-2.0938 0.67188-3.1562 0.85938s-2.1328 0.28125-3.2031 0.28125c-3.7305 0-6.6523-0.95312-8.7656-2.8594-2.1055-1.9141-3.1562-4.582-3.1562-8 0-3.4141 1.0508-6.0781 3.1562-7.9844 2.1133-1.9141 5.0352-2.875 8.7656-2.875 1.082 0 2.1484 0.09375 3.2031 0.28125 1.0508 0.1875 2.1016 0.47656 3.1562 0.85938z"/>
  </symbol>
 </defs>
 <g>
  <path d="m588.3 379.21h-3.3281c-0.15234-0.90625-6.0547-46.539-8.4766-50.172-0.53125-0.75781-1.1367-1.5117-1.8164-2.1172 1.3633-0.37891 2.6484-0.83203 3.9336-1.4375h0.074219c2.043-0.90625 4.5391-3.0273 4.918-7.5664 1.3633-14.605-20.734-45.328-27.32-49.871-2.875-1.9688-7.5664-3.3281-13.773-4.0859l0.074219-9.8359c0.60547-0.30078 1.2109-0.67969 1.8164-1.0586 0.15234 0.15234 0.37891 0.30078 0.53125 0.53125 0.45312 0.60547 1.2109 0.90625 1.9688 0.98438h0.15234c0.75781 0 1.4375-0.30078 1.9688-0.83203 4.6914-4.5391 8.5508-9.9883 12.258-15.211l2.043-2.875c0.67969-0.98437 0.75781-2.2695 0.074219-3.2539-2.5742-4.0117-6.3555-7.1133-9.7617-9.6875-7.0391-5.4492-18.238-12.109-26.109-14.074-0.98438-0.22656-1.9688 0.074218-2.6484 0.75781-3.8594 3.7852-5.9766 9.6875-7.793 14.906-0.75781 2.1953-12.715 24.367-3.5586 36.098 1.2852 1.2109 3.1016 2.1953 5.75 2.4961v0.22656c-5.9023 0.22656-10.672 1.0586-14.301 2.7227-8.0234 3.5586-20.66 27.168-25.504 36.703l-26.715-18.844c-0.15234-0.074219-0.30078 0-0.45312-0.074219-0.67969-8.25-2.1172-12.031-4.7656-13.32-1.9688-0.90625-3.4805-0.30078-4.1641 0.15234-0.75781 0.45312-1.2852 1.1367-1.7422 1.9688-0.60547-0.75781-1.2109-1.5898-1.8906-2.4219-3.1016-3.8594-6.1289-3.5586-7.5664-2.9531-3.2539 1.1367-5.2227 5.3711-5.1445 10.82 0.074219 6.2812 3.2539 14.379 11.352 18.238 0.074219 0.37891 0.074219 0.83203 0.37891 1.1367 8.0977 9.2344 35.266 39.504 44.348 39.504h0.15234c6.9609-0.22656 14-9.1562 18.086-15.363l3.6328 10.293c-1.8164 3.9336-3.4062 8.4766-4.918 13.547-9.7617 0.074218-36.93-3.1016-36.93-3.1016-33.07-3.707-66.82-6.2812-99.438-0.60547-9.082 1.5898-20.055 4.9961-36.703-1.3633-1.2109-0.45312-11.805-4.8438-16.348-4.6914-1.6641-1.6641-3.4805-3.2539-5.6758-4.6172-3.5586-2.2695-7.5664-3.2539-11.047-2.7227-3.8594-4.7656-10.367-4.8438-15.891-3.6328-3.4805 0-7.1133 0.37891-10.594 0.90625v-116.85c2.6484 0.67969 5.0703 2.2695 6.7344 4.6172 2.1953 3.1797 5.9023 5.1445 9.7617 5.1445 0.45312 0 0.90625-0.074219 1.3633-0.15234v3.4062h-6.8867c-3.1016 0-5.5234 2.4961-5.5234 5.5234v28.68c0 3.1016 2.4219 5.5234 5.5234 5.5234h18.238c3.0273 0 5.5234-2.4219 5.5234-5.5234v-28.68c0-3.0273-2.4961-5.5234-5.5234-5.5234h-6.8867v-4.8438c3.6328-2.043 6.1289-5.9023 6.1289-10.367 0-1.0586-0.83203-1.8906-1.8906-1.8906s-1.8906 0.83203-1.8906 1.8906c0 3.1016-1.8164 5.75-4.3906 7.1133h-2.4219v0.75781c-0.45312 0.074219-0.83203 0.30078-1.3633 0.30078-2.6484 0-5.1445-1.3633-6.6602-3.4805-2.875-4.1641-7.4922-6.582-12.336-6.582s-9.4609 2.4219-12.258 6.582c-1.5898 2.1172-4.0859 3.4805-6.7344 3.4805-0.22656 0-0.45312-0.15234-0.75781-0.15234v-0.90625h-2.9531c-2.6484-1.3633-4.4648-4.0117-4.4648-7.1133 0-1.0586-0.83203-1.8906-1.8906-1.8906-0.98438 0-1.8906 0.83203-1.8906 1.8906 0 4.6914 2.8008 8.7031 6.7344 10.672v4.5391h-6.8867c-3.0273 0-5.5234 2.4961-5.5234 5.5234v28.68c0 3.1016 2.4961 5.5234 5.5234 5.5234h18.238c3.0273 0 5.5234-2.4219 5.5234-5.5234v-28.68c0-3.0273-2.4961-5.5234-5.5234-5.5234h-6.8867v-3.3281c0.30078 0 0.53125 0.074219 0.75781 0.074219 3.9336 0 7.5664-1.9688 9.7617-5.1445 1.6641-2.3477 4.0859-3.9336 6.7344-4.6172v117.83c-4.3125 0.98438-8.0977 2.043-10.594 2.875-1.8164-0.60547-3.8594-0.75781-5.75-0.37891-3.3281 0.67969-6.0547 2.7227-8.25 4.9961-2.7227 2.8008-4.7656 6.4336-3.7852 9.9883 0.45312 2.043 1.8906 3.8594 1.9688 5.9023 0.15234 3.2539-3.1797 6.5078-1.6641 9.5352 1.0586 1.9688 3.8594 2.8008 5.2227 4.6172 1.7422 2.2695 0.98438 5.2227 1.8906 7.793 0.98438 3.0273 4.1641 5.1445 7.6445 6.207 0.30078 0.074219 0.75781 0.15234 1.0586 0.22656h-22.098c-1.8906 0-3.4062 1.5117-3.4062 3.4062v15.059c0 1.8906 1.5117 3.4062 3.4062 3.4062h34.355v103.37h-31.254c-1.4375 0-2.5742 1.0586-2.5742 2.4961 0 1.3633 1.1367 2.4961 2.5742 2.4961h0.074219c-1.4375 1.2852-2.4219 3.1016-2.4219 5.1445 0 3.7852 3.0273 6.8125 6.8125 6.8125s6.8867-3.0273 6.8867-6.8125c0-2.043-0.98437-3.8594-2.4961-5.1445h20.508c-1.4375 1.2852-2.4219 3.1016-2.4219 5.1445 0 3.7852 3.0273 6.8125 6.8125 6.8125 3.707 0 6.8125-3.0273 6.8125-6.8125 0-2.043-0.98438-3.8594-2.4219-5.1445h20.434c-1.4375 1.2852-2.4219 3.1016-2.4219 5.1445 0 3.3281 2.4961 5.9766 5.6016 6.582 1.1367 1.8164 3.0273 3.1016 5.3711 3.1016 0 0 254.12 1.6641 254.12 0 0.074218-4.0859 0.53125-14.227 1.2109-18.539l3.0273 0.074219 3.4062-58.953c1.4375-0.30078 2.9531-0.60547 4.4648-0.90625 1.2109-0.30078 2.1172-1.4375 2.1172-2.7227 0.15234-3.5586 0.15234-6.9609 0.15234-10.367l7.418 0.15234h0.22656c2.9531 0 5.6016-1.2109 7.5664-3.4805 2.1172-2.3477 3.1016-5.5234 2.6484-8.6289-0.37891-3.4805-1.2109-19.07-1.0586-19.828h4.6914c1.8906 0 3.4062-1.5117 3.4062-3.4062v-14c-0.003907-1.8867-1.5156-3.3984-3.4102-3.3984zm-291.8-151.96v6.6602h-18.086v-6.6602zm-44.57 0 0.074219 6.6602h-18.086l-0.074218-6.6602zm288.4 21.645c-0.83203 0.45312-1.4375 0.75781-1.5117 0.75781-1.0586 0.37891-1.8164 1.4375-1.8164 2.5742l-0.074219 1.6641c-1.2852 0.45312-2.7227 0.90625-4.2383 1.2852-4.5391-1.1367-5.3711-6.4336-5.4492-8.5508 2.1172-0.75781 4.918-1.6641 7.6445-2.2695 1.8867 1.5117 3.7031 2.9492 5.4453 4.5391zm-3.4062 6.3555-0.074219 8.25-11.883-0.37891-0.074219-1.9688c3.707-1.3633 6.9609-3.5586 8.5508-4.7656 1.2109-0.37891 2.4219-0.75781 3.4805-1.1367zm-20.355-11.805c0.67969-2.875 1.5898-5.75 2.6484-8.3984 3.9336 1.0586 7.793 2.875 10.441 5.0703 1.3633 1.1367 2.6484 2.1953 3.9336 3.1797-3.4062 0.90625-6.7344 2.043-8.6289 2.7227-4.0039 0.30078-6.7305-1.0625-8.3945-2.5742zm-83.773 35.645c-0.37891-4.0117 0.83203-6.4336 1.1367-6.7344 0 0 0.53125 0.15234 1.3633 1.2109 2.2695 2.8008 4.2383 5.2969 5.9023 7.3398 0.75781 0.90625 2.043 1.2852 3.1797 0.83203 0.90625-0.30078 1.5898-1.0586 1.8164-2.043 0.22656 1.5117 0.45312 3.707 0.60547 6.4336l-5.5234 5.0703c-6.9688-3.1055-8.2539-9.9922-8.4805-12.109zm71.891 34.809c-0.37891-1.0586-1.2852-1.8164-2.4219-1.8906-1.2109-0.15234-2.1953 0.45312-2.7227 1.4375-4.0117 7.1875-11.73 17.48-16.422 17.633-4.3125-0.074219-22.777-18.086-38.215-35.492l6.4336-5.9023 27.547 19.449c0.67969 0.45312 1.5898 0.60547 2.3477 0.37891 0.83203-0.15234 1.5117-0.75781 1.8906-1.4375 6.3555-13.016 18.238-35.266 24.141-37.082 20.961-6.3555 44.117 0.53125 45.859 1.7422 5.2969 3.707 25.957 32.996 24.898 44.648-0.23047 1.9648-0.98828 2.6445-1.7461 2.9492-7.8711 3.5586-17.559 2.4961-22.098 1.7422 0.60547-3.6328 1.5117-9.7617 1.8906-11.883 0.30078-1.5117-0.75781-3.0273-2.2695-3.2539-1.5898-0.30078-3.0273 0.75781-3.2539 2.2695-0.53125 3.0273-2.3477 14.68-2.3477 14.68l-1.2852 8.7773c-0.75781 0.074219-1.5898 0.15234-2.4219 0.22656 0-0.22656-0.074219-0.45312-0.074219-0.75781-0.67969-4.8438-0.83203-9.6875-1.2109-14.68-1.0586 4.918-1.0586 9.9141-0.60547 14.906 0.074219 0.22656 0.15234 0.45312 0.15234 0.67969-3.1797 0.22656-6.4336 0.30078-9.6094 0.30078 0.53125-4.6914 1.3633-9.4609 2.8008-14.074-2.3477 4.3906-3.8594 9.1562-4.6172 14.074-2.4961-0.074219-4.918-0.22656-7.3398-0.45312 0.074219-4.1641-0.22656-8.3242-1.2109-12.336-0.074219 4.0859-0.22656 8.1719-0.53125 12.109-2.4219-0.22656-4.8438-0.53125-7.2656-0.98437-0.22656-4.1641-1.2852-8.25-3.1797-11.957 0.98438 3.8594 1.2852 7.7188 1.3633 11.652-0.83203-0.15234-1.6641-0.30078-2.4961-0.53125zm-179.65 31.559c10.293 3.8594 21.34 3.4062 32.164 2.3477 0 0.30078 0.074219 0.53125 0.15234 0.83203 0.30078 1.7422 0.83203 3.6328 2.4219 4.6172 1.2852 0.83203 2.875 0.90625 4.3125 0.83203 6.582-0.15234 13.168-1.0586 19.676-2.4961 2.4219-0.67969 5.0703-1.3633 7.6445-1.2109 2.4961 0.15234 4.8438 1.0586 7.2656 1.2109 3.1016 0.15234 7.3398 0.53125 9.082-2.1953 0.53125-0.75781 0.53125-2.7227 0.37891-4.3906 18.164-0.074218 80.746 5.8281 90.508 5.9023-3.6328 14.074-6.5078 31.328-9.6094 50.324-1.2852 7.8711-2.6484 15.891-4.0859 23.988l-182.07-2.1172c-1.4375 0-2.875-0.67969-3.7852-1.8164-0.83203-0.98437-1.2109-2.1172-0.98438-3.3281 1.0586-6.2812-0.22656-13.016-1.5117-19.449l-0.60547-3.4805c-2.4219-13.547-1.4375-27.547 2.8008-40.562 2.4961-7.7188 5.9766-12.184 10.367-13.168 3.7734-0.83594 14.598 3.7031 15.883 4.1602zm-22.098-11.203c1.0586 0.67969 2.043 1.4375 3.0273 2.2695-1.9688 0.83203-3.7852 1.9688-5.3711 3.5586l-4.0117-0.67969c0.37891-2.4961 0.30078-4.9961-0.53125-7.418 2.1211 0 4.5391 0.83203 6.8867 2.2695zm-36.023 21.492c0.90625-1.3633 2.1953-2.6484 2.043-4.2383-0.15234-1.7422-2.1172-3.0273-4.0859-3.707-1.5898-0.53125-3.2539-0.98438-4.6914-1.7422-0.75781-2.875-1.8164-5.8281-3.3281-8.6289-0.074219-1.2852-0.15234-2.4961-0.45312-3.6328 4.0117-1.1367 8.9297-2.2695 13.848-3.0273 2.4961 2.8008 5.2227 8.0234 2.4219 16.043 0 0 13.848 1.0586 12.637 11.578 0 0 6.3555-5.9766 9.6094-13.547l1.8164 0.30078c-1.2852 2.1953-2.4219 4.6172-3.4062 7.4922-1.1367 3.5586-2.043 7.1133-2.7227 10.746 0 0-10.672-1.1367-10.746-1.2109-1.3633-1.6641-3.707-2.5742-6.0547-2.8008-2.4219-0.15234-4.7656 0.22656-7.0391 0.60547-1.3594-1.0508-0.75391-2.9414 0.15234-4.2305zm22.93 13.32c-0.37891 3.3281-0.67969 5.6758-0.67969 9.082h-20.508c8.4766-1.9688 14.68-6.4336 18.012-9.3828zm2.1953 133.87v0.45312h-24.594v-103.37h23.688c1.1367 5.8281 2.1953 11.883 1.3633 17.027-0.45312 2.8008 0.30078 5.6016 2.1953 7.8711 1.9688 2.4219 4.918 3.8594 8.0977 3.8594l40.562 0.53125v67.426h-45.027c-3.4844-0.003906-6.2852 2.7969-6.2852 6.2031zm185.63 2.8008c-4.7656 2.4219-23.688 4.7656-26.488 7.793-1.0586 1.0586-1.0586 2.6484-0.83203 4.0117h-152.03c-0.30078 0-0.60547-0.22656-0.60547-0.53125v-14.074c0-0.30078 0.30078-0.53125 0.60547-0.53125h182.45v0.074219l0.83203 0.15234c-1.1328 1.2109-2.418 2.3477-3.9336 3.1055zm3.7852-9.0078h-4.6172v-65.914l7.0391 0.074219c-0.45312 2.8008-0.98438 5.6016-1.5117 8.3984-0.22656 1.4375 0.60547 2.8008 1.9688 3.2539 1.1367 0.30078 2.2695 0.60547 3.4062 0.90625zm41.016 11.805c-6.9609 1.5898-14.984 3.1797-16.723 4.9961-0.98438 1.1367-1.0586 2.6484-0.83203 4.0117h-7.3438s0.074219-0.074219 0.074219-0.15234c0.074219-3.707 0.45312-7.7188 1.0586-11.652l2.7227 0.45312 0.90625-3.7852h19.602c0.30078 0 0.53125 0.22656 0.53125 0.53125zm9.8359-2.7969c-0.90625 0.53125-2.4219 0.98437-4.1641 1.4375v-4.2383c0-3.4062-2.8008-6.207-6.207-6.207h-18.309l11.125-47.977c9.4609 1.9688 15.059 0.67969 16.043 0.60547l0.15234 54.637 3.8594 0.074219c-0.75781 0.68359-1.5898 1.2891-2.5 1.668zm28.758-65.914c-25.805 5.8281-47.828 5.2969-72.648-1.9688 0.53125-2.9531 1.0586-5.8281 1.5898-8.7773 0.074219-0.30078 0.22656-0.60547 0.22656-0.98438 0 0-0.074218 0-0.074218-0.074218 1.5898-8.7031 3.0273-17.406 4.4648-25.883 4.6914-28.531 8.7773-53.125 15.512-68.109 1.0586 0.22656 2.043 0.37891 3.1016 0.60547-0.30078 5.9766-1.5117 11.883-3.8594 17.559 3.5586-4.918 5.4492-11.047 5.6016-17.254 2.3477 0.37891 4.6914 0.83203 7.0391 1.0586-0.074219 0.53125-0.074219 0.98438-0.15234 1.5117-0.60547 5.6016-1.8164 11.047-3.1016 16.648 2.7227-5.0703 4.0859-10.746 4.8438-16.422 0.074219-0.53125 0.074219-1.0586 0.15234-1.6641 2.4219 0.22656 4.7656 0.37891 7.1875 0.45312-0.75781 7.6445 0.30078 15.363 3.1797 22.324-1.5117-7.3398-1.8906-14.832-1.3633-22.172 0.53125 0 0.98438 0.074218 1.5117 0.074218 3.0273 0 6.0547-0.15234 9.082-0.37891 0.67969 3.5586 1.5117 7.1133 3.1016 10.367-0.53125-3.5586-1.0586-7.0391-1.5117-10.52 0.75781-0.074218 1.5898-0.22656 2.4219-0.30078 10.289 25.883 14.754 59.863 13.695 103.91zm18.012-19.297c0.15234 1.5117-0.30078 3.1016-1.2852 4.1641-0.90625 1.0586-2.1172 1.3633-3.4062 1.5898l-7.4922-0.15234c-0.15234-38.293-4.8438-68.637-14.301-92.477 0.37891-3.707 3.8594-3.2539 5.75-4.0117 4.5391-1.7422 10.82-1.4375 13.469 2.5742 1.5117 2.3477 6.582 42.379 7.1133 45.406 0.45312 2.418-0.30078 38.742 0.15234 42.906z"/>
  <path d="m315.34 205.84c3.1016 7.5664 11.652 12.109 23.988 12.941 1.2852 0.074218 2.6484 0.15234 4.0117 0.15234 10.746 0 23.082-2.6484 35.188-7.6445 13.621-5.6016 25.352-13.547 33.145-22.25 8.1719-9.3086 11.047-18.539 7.9453-26.109-1.4375-3.5586-4.6914-5.6016-7.7188-8.4766-5.9023-5.6016-15.438-9.6875-28.906-8.7031-8.0234-12.637-21.719-19.449-34.207-16.953-1.3633-1.0586-2.875-1.7422-4.5391-1.9688l0.003906-90.727h-7.5664v92.855c-0.15234 0.15234-0.37891 0.22656-0.53125 0.37891-2.3477 2.2695-3.0273 5.4492-2.4961 8.4766-2.5742 3.1016-4.6172 6.8125-5.9766 11.047-1.9688 6.4336-2.1172 13.469-0.53125 20.355-10.898 9.6094-14.832 19.828-12.941 28.453 0.375 1.9688 0.074219 5.6758 1.1328 8.1719zm17.707-55.395c2.1953-7.1875 6.8125-12.488 12.941-15.059 10.441-4.3125 22.703 0.60547 30.496 11.125-7.2656 1.1367-14.984 3.2539-22.855 6.5078-8.1719 3.4062-15.438 7.5664-21.566 12.031-0.67969-4.9922-0.45312-9.9883 0.98438-14.605zm1.3633 26.562c0.074219-0.074218 0.22656-0.15234 0.30078-0.22656 6.4336-5.2969 14.605-10.141 23.914-14 11.73-4.8438 23.461-7.1875 33.223-7.1875 11.352 0 19.902 3.1797 22.551 9.5352 2.1953 5.3711-0.30078 12.715-6.9609 20.129-7.1875 8.0977-18.164 15.512-31.027 20.812-12.863 5.2969-25.957 7.793-36.703 7.1133-9.9883-0.67969-16.953-4.0859-19.145-9.4609-3.0273-7.418 2.8008-17.555 13.848-26.715z"/>
  <path d="m357.11 190.63c1.2852 3.1797 7.3398 3.6328 13.395 1.1367 6.1289-2.4961 9.9883-7.1133 8.7031-10.215-1.2852-3.1016-7.2656-3.6328-13.395-1.1367-6.1289 2.4922-10.066 7.0352-8.7031 10.215z"/>
  <path d="m339.25 205.16c5.2969-2.1953 8.5508-6.4336 7.2656-9.4609-1.2852-3.0273-6.582-3.7852-11.883-1.5898-5.2969 2.1953-8.5508 6.4336-7.3398 9.4609s6.6602 3.7852 11.957 1.5898z"/>
  <path d="m402.82 178.29c5.2969-2.1953 8.5508-6.4336 7.2656-9.4609-1.2852-3.0273-6.582-3.7852-11.883-1.5898-5.2969 2.1953-8.5508 6.4336-7.3398 9.4609 1.2891 3.0273 6.6602 3.7852 11.957 1.5898z"/>
  <path d="m351.14 184.57c5.2969-2.1953 8.5508-6.4336 7.2656-9.4609-1.2852-3.0273-6.582-3.7852-11.883-1.5898-5.2969 2.1953-8.5508 6.4336-7.3398 9.4609 1.3594 3.0273 6.6562 3.7812 11.957 1.5898z"/>
  <path d="m355.6 197.66c-5.2969 2.1953-8.5508 6.4336-7.3398 9.4609 1.2109 3.0273 6.582 3.7852 11.883 1.5898 5.2969-2.1953 8.5508-6.4336 7.2656-9.4609-1.2148-3.0273-6.5117-3.7852-11.809-1.5898z"/>
  <path d="m383.68 186.16c-5.2969 2.1953-8.5508 6.4336-7.3398 9.4609 1.2109 3.0273 6.582 3.7852 11.883 1.5898 5.2969-2.1953 8.5508-6.4336 7.2656-9.4609-1.2148-3.1055-6.5117-3.7852-11.809-1.5898z"/>
  <path d="m379.89 172.01c5.2969-2.1953 8.5508-6.4336 7.2656-9.4609-1.2852-3.0273-6.582-3.7852-11.883-1.5898-5.2969 2.1953-8.5508 6.4336-7.3398 9.4609 1.3633 3.0273 6.6602 3.7852 11.957 1.5898z"/>
  <path d="m121.54 371.04h77.871v34.434h-77.871z"/>
  <path d="m209.85 270.77h-98.68c-1.5898 0-2.875 1.2852-2.875 2.875v68.637c0 1.5898 1.2852 2.875 2.875 2.875h39.805v13.094l-39.805 0.003906c-1.5898 0-2.875 1.2852-2.875 2.875v125.7c0 1.5898 1.2852 2.875 2.875 2.875h11.047v5.9766h-11.047c-1.5898 0-2.875 1.2852-2.875 2.875v21.945c0 1.5898 1.2852 2.875 2.875 2.875h98.758c1.5898 0 2.875-1.2852 2.875-2.875v-21.945c0-1.5898-1.2852-2.875-2.875-2.875h-11.047v-5.9766h11.047c1.5898 0 2.875-1.2852 2.875-2.875v-125.78c0-1.5898-1.2852-2.875-2.875-2.875h-39.73v-13.09h39.73c1.5898 0 2.875-1.2852 2.875-2.875v-68.637c-0.078125-1.5156-1.3633-2.8047-2.9531-2.8047zm-2.8008 230.43v16.27h-93.078v-16.27zm0-137.35v120.02h-93.078v-120.02zm0-24.441h-93.078v-62.961h93.082z"/>
  <path d="m119.34 305.35h82.41v3.1797h-82.41z"/>
  <path d="m129.03 297.18c0.22656 0 0.37891-0.15234 0.45312-0.30078l2.1953-5.5234 1.9688 9.1562c0.074219 0.22656 0.22656 0.37891 0.45312 0.37891 0.15234 0 0.45312-0.074219 0.53125-0.30078l1.6641-4.1641 1.8164 5.0703c0.074219 0.22656 0.22656 0.30078 0.45312 0.30078 0.22656-0.074219 0.45312-0.15234 0.45312-0.37891l3.1016-10.746 1.8906 5.6016c0.074219 0.15234 0.22656 0.30078 0.45313 0.30078 0.15234 0 0.37891-0.074219 0.45312-0.22656l3.5586-5.9023 1.0586 9.5352c0 0.22656 0.15234 0.37891 0.30078 0.37891 0.15234 0.074219 0.37891 0 0.53125-0.074219l4.8438-4.6914h8.7031l1.2109 5.2227c0.074218 0.22656 0.22656 0.37891 0.45312 0.37891 0.22656 0 0.37891-0.15234 0.45312-0.37891l2.875-8.9297 1.8906 8.3242c0.074219 0.22656 0.22656 0.37891 0.45312 0.37891 0.22656 0 0.45312-0.15234 0.45312-0.37891l2.4219-9.3086 1.4375 5.6758c0.074218 0.22656 0.22656 0.37891 0.45312 0.37891h13.016c0.15234 0 0.37891-0.074219 0.45312-0.22656l2.7227-4.9961 1.0586 8.3242c0 0.22656 0.15234 0.37891 0.37891 0.45312s0.37891-0.074219 0.53125-0.22656l3.1797-4.6914h4.1641c0.30078 0 0.53125-0.22656 0.53125-0.53125 0-0.30078-0.22656-0.53125-0.53125-0.53125h-4.4648c-0.15234 0-0.30078 0.074219-0.37891 0.22656l-2.5742 3.8594-1.1367-8.5508c0-0.22656-0.22656-0.37891-0.37891-0.45312-0.22656-0.074219-0.45312 0.074219-0.53125 0.22656l-3.3281 6.1289h-12.336l-1.8164-7.1875c-0.074218-0.22656-0.22656-0.37891-0.45312-0.37891-0.22656 0-0.45313 0.15234-0.45313 0.37891l-2.4219 9.1562-1.8164-8.0977c-0.074219-0.22656-0.22656-0.37891-0.45312-0.37891-0.22656 0-0.37891 0.15234-0.45312 0.37891l-2.875 8.9297-0.74609-3.6328c-0.074219-0.22656-0.22656-0.37891-0.45313-0.37891h-9.3086c-0.15234 0-0.22656 0.074219-0.37891 0.15234l-4.2383 4.1641-1.1367-9.9141c0-0.22656-0.15234-0.37891-0.37891-0.45312-0.22656-0.074219-0.45312 0.074219-0.53125 0.22656l-3.8555 6.2031-2.043-6.1289c-0.074219-0.22656-0.22656-0.30078-0.45312-0.30078-0.22656-0.074219-0.45312 0.15234-0.45312 0.37891l-3.1797 10.746-1.7422-4.918c-0.074219-0.22656-0.22656-0.30078-0.45312-0.30078-0.22656 0-0.37891 0.15234-0.45312 0.30078l-1.5117 3.8594-1.9688-9.1562c-0.074219-0.22656-0.22656-0.37891-0.45312-0.37891s-0.45312 0.074219-0.53125 0.30078l-2.6484 6.7344-9.3867-0.003907c-0.30078 0-0.53125 0.22656-0.53125 0.53125 0 0.30078 0.22656 0.53125 0.53125 0.53125l9.6875-0.003906z"/>
  <path d="m123.5 321.09 3.1797 4.6914c0.074218 0.15234 0.30078 0.30078 0.53125 0.22656 0.22656-0.074219 0.37891-0.22656 0.37891-0.45312l1.0586-8.3242 2.7227 4.9961c0.074219 0.15234 0.22656 0.22656 0.45312 0.22656h13.016c0.22656 0 0.45312-0.15234 0.45312-0.37891l1.4375-5.6758 2.4219 9.3086c0.074219 0.22656 0.22656 0.37891 0.45312 0.37891s0.45312-0.15234 0.45312-0.37891l1.8906-8.3242 2.875 8.9297c0.074219 0.22656 0.22656 0.37891 0.45312 0.37891s0.37891-0.15234 0.45312-0.37891l1.2109-5.2227h8.7031l4.8438 4.6914c0.15234 0.15234 0.37891 0.15234 0.53125 0.074219 0.15234-0.074219 0.30078-0.22656 0.30078-0.37891l1.0586-9.5352 3.5586 5.9023c0.074219 0.15234 0.30078 0.22656 0.45312 0.22656 0.22656 0 0.37891-0.15234 0.45312-0.30078l1.8906-5.6016 3.1016 10.746c0.074218 0.22656 0.30078 0.30078 0.45312 0.37891 0.22656 0 0.37891-0.15234 0.45312-0.30078l1.8164-5.0703 1.6641 4.1641c0.074219 0.22656 0.30078 0.30078 0.53125 0.30078 0.22656 0 0.37891-0.15234 0.45313-0.37891l1.9688-9.1562 2.1953 5.5234c0.074219 0.22656 0.22656 0.30078 0.45312 0.30078h9.6875c0.30078 0 0.53125-0.22656 0.53125-0.53125 0-0.30078-0.22656-0.53125-0.53125-0.53125h-9.3086l-2.6484-6.7344c-0.074219-0.22656-0.30078-0.30078-0.53125-0.30078-0.22656 0-0.37891 0.15234-0.45312 0.37891l-1.9688 9.1562-1.5117-3.8594c-0.074219-0.22656-0.22656-0.30078-0.45312-0.30078s-0.37891 0.15234-0.45312 0.30078l-1.7422 4.918-3.1797-10.746c-0.074219-0.22656-0.22656-0.37891-0.45312-0.37891s-0.37891 0.15234-0.45312 0.30078l-2.043 6.1289-3.7852-6.207c-0.074219-0.15234-0.30078-0.30078-0.53125-0.22656-0.22656 0.074219-0.37891 0.22656-0.37891 0.45312l-1.1367 9.9141-4.2383-4.1641c-0.074219-0.074219-0.22656-0.15234-0.37891-0.15234h-9.3086c-0.22656 0-0.45312 0.15234-0.45312 0.37891l-0.90625 3.7852-2.875-8.9297c-0.074219-0.22656-0.22656-0.37891-0.45312-0.37891-0.22656 0-0.37891 0.15234-0.45312 0.37891l-1.8164 8.0977-2.4219-9.1562c-0.074219-0.22656-0.22656-0.37891-0.45313-0.37891-0.22656 0-0.45312 0.15234-0.45312 0.37891l-1.8164 7.1875-12.402 0.007812-3.3281-6.1289c-0.074218-0.15234-0.30078-0.30078-0.53125-0.22656-0.22656 0.074219-0.37891 0.22656-0.37891 0.45312l-1.1367 8.5508-2.5742-3.8594c-0.074219-0.074218-0.22266-0.14844-0.375-0.14844h-4.3906c-0.30078 0-0.53125 0.22656-0.53125 0.53125 0 0.30078 0.22656 0.53125 0.53125 0.53125l4.1641-0.003906z"/>
  <path d="m496.51 182c12.488 5.1445 24.746 7.6445 35.188 7.6445 13.848 0 24.441-4.4648 28-13.094 1.0586-2.4961 0.75781-6.207 1.2109-8.25 1.8906-8.6289-1.9688-18.844-12.941-28.453 1.5898-6.8867 1.4375-13.926-0.53125-20.355-1.2852-4.2383-3.3281-7.9453-5.9766-11.047 0.60547-2.9531-0.15234-6.1289-2.4961-8.3984-0.15234-0.15234-0.37891-0.22656-0.53125-0.37891v-63.566h-7.5664v61.449c-1.6641 0.22656-3.1797 0.83203-4.5391 1.9688-12.562-2.4961-26.184 4.3125-34.207 16.953-13.547-0.98438-23.082 3.1797-28.984 8.7031-3.0273 2.875-6.2812 4.9961-7.7188 8.4766-3.1016 7.5664-0.22656 16.801 7.9453 26.109 7.7227 8.7695 19.527 16.637 33.148 22.238zm32.539-75.828c6.1289 2.4961 10.746 7.793 12.941 14.984 1.4375 4.6172 1.6641 9.6094 0.90625 14.605-6.0547-4.5391-13.395-8.7031-21.566-12.031-7.793-3.2539-15.59-5.3711-22.777-6.5078 7.7969-10.445 20.129-15.363 30.496-11.051zm-68.332 29.664c2.5742-6.2812 11.125-9.5352 22.477-9.5352 9.7617 0 21.492 2.3477 33.223 7.1875 9.1562 3.7852 17.328 8.6289 23.914 14.074 0.074219 0 0.15234 0.074219 0.22656 0.074219 2.5742 2.1953 4.918 4.3906 6.9609 6.6602 6.582 7.418 9.1562 14.758 6.9609 20.129-4.8438 11.73-30.422 12.789-55.848 2.3477-12.789-5.2969-23.836-12.715-31.027-20.812-6.5859-7.4844-9.082-14.824-6.8867-20.125z"/>
  <path d="m495.83 152.18c-1.2852 3.1016 2.5742 7.7188 8.7031 10.215 6.1289 2.4961 12.109 2.043 13.395-1.1367 1.2852-3.1016-2.6484-7.7188-8.7773-10.215-6.1328-2.4961-12.035-1.9648-13.32 1.1367z"/>
  <path d="m528.44 166.41c-1.2852 3.0273 2.043 7.3398 7.2656 9.4609 5.2969 2.1953 10.594 1.4375 11.883-1.5898 1.2852-3.0273-2.043-7.2656-7.3398-9.4609-5.2227-2.1914-10.52-1.5117-11.809 1.5898z"/>
  <path d="m484.1 147.42c1.2852-3.0273-2.043-7.2656-7.3398-9.4609-5.2969-2.1953-10.594-1.4375-11.883 1.5898-1.2852 3.0273 2.043 7.3398 7.2656 9.4609 5.3711 2.1172 10.672 1.4336 11.957-1.5898z"/>
  <path d="m523.9 155.29c5.2969 2.1953 10.594 1.4375 11.883-1.5898 1.2852-3.0273-2.043-7.2656-7.3398-9.4609-5.2969-2.1953-10.594-1.4375-11.883 1.5898-1.2852 3.0312 2.043 7.2695 7.3398 9.4609z"/>
  <path d="m519.44 168.38c-5.2969-2.1953-10.594-1.4375-11.883 1.5898-1.2852 3.0273 2.043 7.3398 7.2656 9.4609 5.2227 2.1172 10.594 1.4375 11.883-1.5898 1.2852-3.0273-1.9688-7.2656-7.2656-9.4609z"/>
  <path d="m491.36 156.88c-5.2969-2.1953-10.594-1.4375-11.883 1.5898-1.2852 3.0273 2.043 7.3398 7.2656 9.4609 5.2969 2.1953 10.594 1.4375 11.883-1.5898 1.2852-3.0273-1.9688-7.3398-7.2656-9.4609z"/>
  <path d="m495.14 142.72c5.2969 2.1953 10.594 1.4375 11.883-1.5898 1.2852-3.0273-2.043-7.2656-7.3398-9.4609s-10.594-1.4375-11.883 1.5898c-1.2852 3.0312 2.043 7.2695 7.3398 9.4609z"/>
  <use x="70" y="673.511719" xlink:href="#w"/>
  <use x="97.769531" y="673.511719" xlink:href="#d"/>
  <use x="116.429688" y="673.511719" xlink:href="#a"/>
  <use x="142.089844" y="673.511719" xlink:href="#c"/>
  <use x="167.625" y="673.511719" xlink:href="#b"/>
  <use x="185.710938" y="673.511719" xlink:href="#a"/>
  <use x="211.375" y="673.511719" xlink:href="#k"/>
  <use x="251.632812" y="673.511719" xlink:href="#j"/>
  <use x="278.71875" y="673.511719" xlink:href="#i"/>
  <use x="316.554688" y="673.511719" xlink:href="#h"/>
  <use x="345.839844" y="673.511719" xlink:href="#v"/>
  <use x="367.863281" y="673.511719" xlink:href="#c"/>
  <use x="393.394531" y="673.511719" xlink:href="#g"/>
  <use x="445.996094" y="673.511719" xlink:href="#u"/>
  <use x="460.074219" y="673.511719" xlink:href="#t"/>
  <use x="482.59375" y="673.511719" xlink:href="#f"/>
  <use x="509.53125" y="673.511719" xlink:href="#c"/>
  <use x="535.066406" y="673.511719" xlink:href="#s"/>
  <use x="70" y="711.351562" xlink:href="#r"/>
  <use x="86.460938" y="711.351562" xlink:href="#d"/>
  <use x="105.121094" y="711.351562" xlink:href="#e"/>
  <use x="131.117188" y="711.351562" xlink:href="#g"/>
  <use x="183.714844" y="711.351562" xlink:href="#b"/>
  <use x="201.804688" y="711.351562" xlink:href="#f"/>
  <use x="228.742188" y="711.351562" xlink:href="#a"/>
  <use x="267.578125" y="711.351562" xlink:href="#q"/>
  <use x="299.242188" y="711.351562" xlink:href="#e"/>
  <use x="325.238281" y="711.351562" xlink:href="#p"/>
  <use x="352.175781" y="711.351562" xlink:href="#o"/>
  <use x="392.285156" y="711.351562" xlink:href="#n"/>
  <use x="420.019531" y="711.351562" xlink:href="#d"/>
  <use x="438.679688" y="711.351562" xlink:href="#e"/>
  <use x="464.671875" y="711.351562" xlink:href="#m"/>
  <use x="477.644531" y="711.351562" xlink:href="#a"/>
  <use x="503.304687" y="711.351562" xlink:href="#l"/>
  <use x="525.734375" y="711.351562" xlink:href="#b"/>
 </g>
</svg>
